<?xml version="1.0" standalone="no"?>
<!DOCTYPE svg PUBLIC "-//W3C//DTD SVG 20010904//EN"
 "http://www.w3.org/TR/2001/REC-SVG-20010904/DTD/svg10.dtd">
<svg version="1.0" xmlns="http://www.w3.org/2000/svg"
 width="512.000000pt" height="512.000000pt" viewBox="0 0 512.000000 512.000000"
 preserveAspectRatio="xMidYMid meet">
<metadata>
Created by potrace 1.14, written by Peter Selinger 2001-2017
</metadata>
<g transform="translate(0.000000,512.000000) scale(0.100000,-0.100000)"
fill="#000000" stroke="none">
<path d="M3660 5020 c-256 -58 -444 -194 -580 -421 -28 -45 -50 -88 -50 -94 0
-7 -9 -32 -19 -56 -49 -112 -62 -364 -26 -494 9 -33 18 -67 20 -76 6 -30 70
-154 109 -214 51 -76 155 -180 231 -231 150 -100 286 -143 472 -150 238 -9
468 82 639 251 174 173 262 383 262 627 0 294 -151 572 -398 734 -48 32 -172
94 -199 99 -9 2 -43 11 -76 20 -87 24 -289 27 -385 5z"/>
<path d="M1214 4304 c-271 -58 -485 -266 -553 -535 -26 -104 -22 -277 9 -374
72 -231 246 -407 475 -482 70 -23 96 -26 215 -26 119 0 144 3 215 26 193 64
353 204 436 383 53 114 64 173 63 320 0 136 -31 243 -103 358 -110 178 -254
279 -476 333 -47 11 -224 10 -281 -3z"/>
<path d="M2500 3504 c-101 -27 -173 -90 -223 -194 -87 -180 -5 -398 179 -479
49 -21 74 -25 149 -25 81 0 96 3 150 31 79 41 132 95 167 168 96 206 -13 444
-229 500 -70 18 -121 18 -193 -1z"/>
<path d="M3570 2953 c-8 -3 -23 -15 -32 -27 -15 -18 -18 -43 -18 -158 0 -75 4
-148 9 -161 11 -29 61 -52 96 -43 44 11 55 51 55 193 0 70 -3 138 -6 151 -10
36 -64 59 -104 45z"/>
<path d="M4045 2789 c-45 -25 -45 -29 -45 -342 l0 -299 -22 4 c-13 3 -84 18
-160 34 l-136 28 -6 38 c-12 74 -109 89 -145 22 -17 -32 -13 -31 -156 -11 -40
6 -112 15 -170 22 -16 2 -42 4 -57 4 l-28 1 0 179 c0 99 -4 191 -9 204 -14 35
-63 53 -101 37 -17 -7 -34 -18 -38 -24 -4 -6 -9 -94 -12 -195 l-5 -185 -70 4
c-120 7 -554 5 -682 -2 l-123 -7 0 175 c0 202 -7 229 -64 239 -40 8 -81 -14
-90 -48 -3 -12 -6 -104 -6 -205 0 -100 -3 -181 -7 -180 -11 2 -122 -11 -233
-29 -52 -8 -107 -16 -121 -18 -27 -4 -226 -41 -269 -51 -14 -3 -36 -7 -50 -10
-14 -3 -32 -7 -40 -9 -8 -2 -30 -7 -48 -10 l-32 -5 0 130 c0 154 -10 185 -64
195 -40 8 -81 -14 -90 -48 -3 -12 -6 -74 -6 -138 l0 -116 -74 -46 c-87 -55
-187 -153 -236 -230 l-35 -56 -92 -1 c-50 0 -99 -3 -108 -7 -16 -6 -17 9 -12
193 3 109 7 209 10 220 3 12 8 37 11 55 11 67 38 156 76 252 33 81 38 102 29
124 -13 35 -38 52 -74 52 -46 0 -69 -27 -108 -125 -81 -207 -105 -347 -106
-633 l-2 -204 -46 -51 c-25 -28 -60 -80 -77 -116 l-31 -65 0 -416 0 -415 38
-76 c68 -138 184 -214 343 -225 l89 -6 65 -67 c99 -101 188 -159 308 -201 144
-51 100 -49 1671 -46 806 1 1476 6 1489 10 12 4 30 9 40 11 83 20 210 81 287
138 22 17 67 59 100 94 l60 63 68 2 c121 4 231 56 299 142 98 123 99 125 96
597 l-3 395 -33 70 c-18 39 -53 90 -77 115 l-43 45 -5 240 c-2 132 -10 265
-17 295 -42 195 -109 380 -148 411 -35 27 -69 24 -102 -10 -34 -34 -33 -46 10
-151 71 -173 91 -277 97 -524 l6 -199 -24 6 c-13 4 -61 7 -106 7 -54 0 -83 4
-83 11 0 19 -71 111 -130 169 -55 55 -141 117 -193 141 l-26 12 -3 293 c-3
321 -3 318 -63 329 -17 3 -39 0 -50 -6z"/>
</g>
</svg>
