{
  "accessors": [
    {
      "bufferView": 2,
      "componentType": 5126,
      "count": 24,
      "max": [
        3.9695730209350586,
        -0.22029219567775726,
        4.800000190734863
      ],
      "min": [
        -3.9695730209350586,
        -3.7948219776153564,
        4.376930236816406
      ],
      "type": "VEC3"
    },
    {
      "bufferView": 0,
      "componentType": 5125,
      "count": 32,
      "type": "SCALAR"
    },
    {
      "bufferView": 2,
      "byteOffset": 288,
      "componentType": 5126,
      "count": 758,
      "max": [
        5.5118842124938965,
        6.037525177001953,
        5.300000190734863
      ],
      "min": [
        -5.5118842124938965,
        -7.5,
        0.0
      ],
      "type": "VEC3"
    },
    {
      "bufferView": 2,
      "byteOffset": 9384,
      "componentType": 5126,
      "count": 758,
      "max": [
        1.0,
        1.0,
        1.0
      ],
      "min": [
        -1.0,
        -1.0,
        -1.0
      ],
      "type": "VEC3"
    },
    {
      "bufferView": 1,
      "componentType": 5126,
      "count": 758,
      "max": [
        0.9997056722640991,
        0.9996867179870605
      ],
      "min": [
        0.00029432299197651446,
        0.00031330500496551394
      ],
      "type": "VEC2"
    },
    {
      "bufferView": 0,
      "byteOffset": 128,
      "componentType": 5125,
      "count": 1176,
      "type": "SCALAR"
    },
    {
      "bufferView": 2,
      "byteOffset": 18480,
      "componentType": 5126,
      "count": 64,
      "max": [
        11.68295955657959,
        1.0000020265579224,
        2.5431299945921637e-06
      ],
      "min": [
        -11.597479820251465,
        -1.0000009536743164,
        -1.2715699995169416e-06
      ],
      "type": "VEC3"
    },
    {
      "bufferView": 2,
      "byteOffset": 19248,
      "componentType": 5126,
      "count": 64,
      "max": [
        0.0,
        0.0,
        1.0
      ],
      "min": [
        0.0,
        0.0,
        1.0
      ],
      "type": "VEC3"
    },
    {
      "bufferView": 1,
      "byteOffset": 6064,
      "componentType": 5126,
      "count": 64,
      "max": [
        0.6622251272201538,
        0.37216049432754517
      ],
      "min": [
        0.656597912311554,
        0.3463202118873596
      ],
      "type": "VEC2"
    },
    {
      "bufferView": 0,
      "byteOffset": 4832,
      "componentType": 5125,
      "count": 180,
      "type": "SCALAR"
    }
  ],
  "asset": {
    "extras": {
      "author": "whoyee (https://sketchfab.com/whoyee)",
      "license": "CC-BY-4.0 (http://creativecommons.org/licenses/by/4.0/)",
      "source": "https://sketchfab.com/3d-models/gallery-space-8dc19249963d4d2e9e93f48dd3c31f7c",
      "title": "Gallery Space"
    },
    "generator": "Sketchfab-12.75.0",
    "version": "2.0"
  },
  "bufferViews": [
    {
      "buffer": 0,
      "byteLength": 5552,
      "name": "floatBufferViews",
      "target": 34963
    },
    {
      "buffer": 0,
      "byteLength": 6576,
      "byteOffset": 5552,
      "byteStride": 8,
      "name": "floatBufferViews",
      "target": 34962
    },
    {
      "buffer": 0,
      "byteLength": 20016,
      "byteOffset": 12128,
      "byteStride": 12,
      "name": "floatBufferViews",
      "target": 34962
    }
  ],
  "buffers": [
    {
      "byteLength": 32144,
      "uri": "scene.bin"
    }
  ],
  "extensionsUsed": [
    "KHR_materials_unlit"
  ],
  "images": [
    {
      "uri": "../../textures/Material_baseColor.png"
    }
  ],
  "materials": [
    {
      "doubleSided": true,
      "extensions": {
        "KHR_materials_unlit": {}
      },
      "name": "material_0",
      "pbrMetallicRoughness": {
        "metallicFactor": 0.0
      }
    },
    {
      "extensions": {
        "KHR_materials_unlit": {}
      },
      "name": "Spot_Lights",
      "pbrMetallicRoughness": {
        "baseColorFactor": [
          0.64,
          0.64,
          0.64,
          1.0
        ],
        "metallicFactor": 0.0
      }
    },
    {
      "doubleSided": true,
      "extensions": {
        "KHR_materials_unlit": {}
      },
      "name": "Material",
      "pbrMetallicRoughness": {
        "baseColorTexture": {
          "index": 0
        },
        "metallicFactor": 0.0
      }
    }
  ],
  "meshes": [
    {
      "name": "Object_0",
      "primitives": [
        {
          "attributes": {
            "POSITION": 0
          },
          "indices": 1,
          "material": 0,
          "mode": 1
        }
      ]
    },
    {
      "name": "Material-material",
      "primitives": [
        {
          "attributes": {
            "NORMAL": 3,
            "POSITION": 2,
            "TEXCOORD_0": 4
          },
          "indices": 5,
          "material": 2,
          "mode": 4
        }
      ]
    },
    {
      "name": "Spot_Lights-material",
      "primitives": [
        {
          "attributes": {
            "NORMAL": 7,
            "POSITION": 6,
            "TEXCOORD_0": 8
          },
          "indices": 9,
          "material": 1,
          "mode": 4
        }
      ]
    }
  ],
  "nodes": [
    {
      "children": [
        1
      ],
      "matrix": [
        0.9226153492927551,
        -1.4836786154857268e-16,
        -3.2944283201124565e-32,
        0.0,
        0.0,
        2.0486176073147958e-16,
        -0.9226153492927551,
        0.0,
        1.4836786154857268e-16,
        0.9226153492927551,
        2.0486176073147958e-16,
        0.0,
        -4.261456638954275e-16,
        0.0,
        0.0,
        1.0
      ],
      "name": "Sketchfab_model"
    },
    {
      "children": [
        2,
        5
      ],
      "name": "Collada visual scene group"
    },
    {
      "children": [
        3,
        4
      ],
      "name": "Room"
    },
    {
      "mesh": 0,
      "name": "Object_3"
    },
    {
      "mesh": 1,
      "name": "Material-material"
    },
    {
      "children": [
        6
      ],
      "matrix": [
        0.09605813,
        0.0,
        0.0,
        0.0,
        0.0,
        0.09605813,
        0.0,
        0.0,
        0.0,
        0.0,
        0.09605813,
        0.0,
        0.05488229,
        -6.537899,
        3.40452,
        1.0
      ],
      "name": "Cove_Lights"
    },
    {
      "mesh": 2,
      "name": "Spot_Lights-material"
    }
  ],
  "samplers": [
    {
      "magFilter": 9729,
      "minFilter": 9987,
      "wrapS": 10497,
      "wrapT": 10497
    }
  ],
  "scene": 0,
  "scenes": [
    {
      "name": "Sketchfab_Scene",
      "nodes": [
        0
      ]
    }
  ],
  "textures": [
    {
      "sampler": 0,
      "source": 0
    }
  ]
}
